<svg viewBox="0 0 200 170" xmlns="http://www.w3.org/2000/svg" role="img" aria-label="Content creator camera illustration">
  <circle cx="100" cy="85" r="66" fill="#f3e9cf"/>
  <circle cx="150" cy="46" r="6" fill="#dbb95c"/>
  <circle cx="48" cy="120" r="5" fill="#b89630"/>
  <!-- camera body -->
  <rect x="50" y="66" width="100" height="66" rx="10" fill="#c9a84c"/>
  <rect x="50" y="66" width="100" height="18" rx="10" fill="#b89630"/>
  <!-- viewfinder bump -->
  <path d="M78 66 l6 -12 h22 l6 12 z" fill="#b89630"/>
  <!-- lens -->
  <circle cx="100" cy="102" r="24" fill="#efe4c4"/>
  <circle cx="100" cy="102" r="24" fill="none" stroke="#3a3324" stroke-width="2.5" opacity="0.7"/>
  <circle cx="100" cy="102" r="14" fill="#dbb95c"/>
  <circle cx="100" cy="102" r="14" fill="none" stroke="#fff" stroke-width="2"/>
  <circle cx="93" cy="95" r="4" fill="#ffffff" opacity="0.8"/>
  <!-- flash light -->
  <circle cx="134" cy="76" r="4" fill="#f3e9cf"/>
  <!-- sparkle -->
  <path d="M58 52 l2.5 6 6 2.5 -6 2.5 -2.5 6 -2.5 -6 -6 -2.5 6 -2.5 z" fill="#dbb95c"/>
</svg>
